# xmcd
#
# Track frame offsets: 
#        150
#        14430
#        29404
#        44380
#        60801
#        77146
#        95330
#        116007
#        134552
#        151613
#        170063
#        187098
#        203640
#        221557
#        236710
#        268973
#
# Disc length: 4220 seconds
#
# Revision: 0
# Processed by: cddbd v1.5.2PL0 Copyright (c) Steve Scherf et al.
# Submitted via: ExactAudioCopy v0.99pb4
#
DISCID=e0107a10
DTITLE=Jay Sean - My Own Way
DYEAR=2008
DGENRE=R&B
TTITLE0=01 Ride It
TTITLE1=02 Maybe
TTITLE2=03 I Won't Tell
TTITLE3=04 Stay
TTITLE4=05 Stuck in the Middle
TTITLE5=06 Good Enough
TTITLE6=07 Cry
TTITLE7=08 All or Nothing
TTITLE8=09 Runaway
TTITLE9=10 Waiting
TTITLE10=11 Used to Love Her
TTITLE11=12 Just a Friend
TTITLE12=13 Murder
TTITLE13=14 Easy as 1, 2, 3
TTITLE14=15 Maybe (DJ Komori Remix)
TTITLE15=Data
EXTD=
EXTT0=
EXTT1=
EXTT2=
EXTT3=
EXTT4=
EXTT5=
EXTT6=
EXTT7=
EXTT8=
EXTT9=
EXTT10=
EXTT11=
EXTT12=
EXTT13=
EXTT14=
EXTT15=
PLAYORDER=
